<svg xmlns="http://www.w3.org/2000/svg" xmlns:xlink="http://www.w3.org/1999/xlink" width="200" zoomAndPan="magnify" viewBox="0 0 150 44.999999" height="60" preserveAspectRatio="xMidYMid meet" version="1.0"><defs><g/><clipPath id="f16af83669"><path d="M 0 30.722656 L 150 30.722656 L 150 36 L 0 36 Z M 0 30.722656 " clip-rule="nonzero"/></clipPath><clipPath id="3582384439"><path d="M 0 35 L 150 35 L 150 36.667969 L 0 36.667969 Z M 0 35 " clip-rule="nonzero"/></clipPath><clipPath id="70cd16ebac"><path d="M 0 30.722656 L 150 30.722656 L 150 36.667969 L 0 36.667969 Z M 0 30.722656 " clip-rule="nonzero"/></clipPath></defs><path stroke-linecap="butt" transform="matrix(1.239051, 0, 0, 1.239051, 3.075738, 0.816606)" fill="none" stroke-linejoin="miter" d="M 10.348807 5.633561 C 11.79901 5.633561 12.896119 6.024485 13.633831 6.809486 C 14.36839 7.594487 14.734094 8.70736 14.734094 10.141799 C 14.734094 10.308888 14.683652 10.441298 14.582768 10.539029 C 14.469274 10.658828 14.327406 10.718728 14.160318 10.718728 L 12.476822 10.718728 C 12.309733 10.718728 12.177323 10.658828 12.079592 10.539029 C 11.959793 10.441298 11.903046 10.308888 11.903046 10.141799 L 11.903046 9.965253 C 11.903046 9.331577 11.776941 8.874448 11.52158 8.58756 C 11.272523 8.319588 10.90682 8.184026 10.421317 8.184026 C 9.935814 8.184026 9.570111 8.319588 9.321055 8.58756 C 9.056235 8.874448 8.923825 9.331577 8.923825 9.965253 C 8.923825 10.29943 8.964809 10.608386 9.043625 10.895274 C 9.125593 11.197925 9.270613 11.497424 9.47238 11.793769 C 9.674147 12.09642 9.938967 12.414835 10.276297 12.749012 C 10.591558 13.098952 10.99194 13.474113 11.47429 13.874495 C 12.095355 14.391524 12.618689 14.877026 13.05375 15.331003 C 13.473048 15.794437 13.807225 16.245261 14.056282 16.683475 C 14.308491 17.134298 14.491342 17.585122 14.607989 18.035946 C 14.708873 18.48677 14.759315 18.972273 14.759315 19.492454 C 14.759315 20.942657 14.393611 22.052377 13.659052 22.818462 C 12.902425 23.606616 11.792704 24.000693 10.323586 24.000693 C 8.851315 24.000693 7.738442 23.606616 6.98812 22.818462 C 6.237798 22.052377 5.862636 20.942657 5.862636 19.492454 L 5.862636 18.940747 C 5.862636 18.789421 5.919384 18.653859 6.03603 18.537212 C 6.136914 18.433176 6.263019 18.382734 6.414344 18.382734 L 8.113603 18.382734 C 8.264929 18.382734 8.400491 18.433176 8.520291 18.537212 C 8.636937 18.653859 8.696837 18.789421 8.696837 18.940747 L 8.696837 19.662695 C 8.696837 20.299523 8.829247 20.750347 9.094066 21.021472 C 9.362039 21.286292 9.740352 21.418702 10.225855 21.418702 C 10.708205 21.418702 11.089671 21.286292 11.376559 21.021472 C 11.641379 20.750347 11.773789 20.299523 11.773789 19.662695 C 11.773789 19.347434 11.732805 19.04163 11.650837 18.738979 C 11.565716 18.436328 11.423849 18.133677 11.222081 17.834179 C 11.023466 17.53468 10.764952 17.209961 10.446538 16.860021 C 10.112361 16.525844 9.702521 16.156988 9.223324 15.753453 C 8.602259 15.233272 8.08523 14.750922 7.669085 14.303251 C 7.249787 13.849274 6.912457 13.39845 6.666553 12.950779 C 6.395428 12.496802 6.212577 12.045979 6.114846 11.592002 C 5.995046 11.144331 5.938299 10.658828 5.938299 10.141799 C 5.938299 8.70736 6.304003 7.594487 7.038562 6.809486 C 7.776274 6.024485 8.879689 5.633561 10.348807 5.633561 Z M 25.103043 6.355509 C 25.103043 6.156895 25.178706 5.980348 25.330031 5.829023 C 25.459288 5.699766 25.635835 5.633561 25.856518 5.633561 L 27.208989 5.633561 C 27.407604 5.633561 27.584151 5.699766 27.735476 5.829023 C 27.867886 5.980348 27.937243 6.156895 27.937243 6.355509 L 27.937243 23.272439 C 27.937243 23.471054 27.867886 23.638142 27.735476 23.773705 C 27.584151 23.92503 27.407604 24.000693 27.208989 24.000693 L 25.856518 24.000693 C 25.635835 24.000693 25.459288 23.92503 25.330031 23.773705 C 25.178706 23.638142 25.103043 23.471054 25.103043 23.272439 L 25.103043 16.957752 C 25.103043 16.759137 25.036838 16.582591 24.901276 16.431265 C 24.74995 16.295703 24.576556 16.229498 24.374789 16.229498 L 20.815487 16.229498 C 20.61372 16.229498 20.449784 16.295703 20.320527 16.431265 C 20.169201 16.582591 20.093538 16.759137 20.093538 16.957752 L 20.093538 23.272439 C 20.093538 23.471054 20.024181 23.638142 19.891771 23.773705 C 19.740446 23.92503 19.563899 24.000693 19.365284 24.000693 L 17.987592 24.000693 C 17.782672 24.000693 17.615583 23.92503 17.486326 23.773705 C 17.335001 23.638142 17.259338 23.471054 17.259338 23.272439 L 17.259338 6.355509 C 17.259338 6.156895 17.335001 5.980348 17.486326 5.829023 C 17.615583 5.699766 17.782672 5.633561 17.987592 5.633561 L 19.365284 5.633561 C 19.563899 5.633561 19.740446 5.699766 19.891771 5.829023 C 20.024181 5.980348 20.093538 6.156895 20.093538 6.355509 L 20.093538 12.676502 C 20.093538 12.875116 20.169201 13.042205 20.320527 13.177767 C 20.449784 13.322787 20.61372 13.39845 20.815487 13.39845 L 24.374789 13.39845 C 24.576556 13.39845 24.74995 13.322787 24.901276 13.177767 C 25.036838 13.042205 25.103043 12.875116 25.103043 12.676502 Z M 39.453744 7.736355 C 39.453744 7.938122 39.387539 8.10521 39.258282 8.240773 C 39.106957 8.385793 38.93041 8.458303 38.731795 8.458303 L 33.990263 8.458303 C 33.788496 8.458303 33.62456 8.527661 33.49215 8.663223 C 33.343977 8.811396 33.268315 8.987943 33.268315 9.186557 L 33.268315 10.693507 C 33.268315 10.892122 33.343977 11.05921 33.49215 11.194773 C 33.62456 11.346098 33.788496 11.421761 33.990263 11.421761 L 37.120809 11.421761 C 37.341492 11.421761 37.527497 11.487966 37.678822 11.623528 C 37.808079 11.768549 37.874284 11.945095 37.874284 12.150015 L 37.874284 13.502487 C 37.874284 13.701101 37.808079 13.877648 37.678822 14.025821 C 37.527497 14.177146 37.341492 14.252809 37.120809 14.252809 L 33.990263 14.252809 C 33.788496 14.252809 33.62456 14.319014 33.49215 14.448271 C 33.343977 14.599596 33.268315 14.776143 33.268315 14.974757 L 33.268315 20.438238 C 33.268315 20.643158 33.343977 20.810247 33.49215 20.939504 C 33.62456 21.09083 33.788496 21.166492 33.990263 21.166492 L 38.731795 21.166492 C 38.93041 21.166492 39.106957 21.23585 39.258282 21.36826 C 39.387539 21.519585 39.453744 21.696132 39.453744 21.894746 L 39.453744 23.272439 C 39.453744 23.471054 39.387539 23.638142 39.258282 23.773705 C 39.106957 23.92503 38.93041 24.000693 38.731795 24.000693 L 31.162368 24.000693 C 30.957448 24.000693 30.79036 23.92503 30.661102 23.773705 C 30.509777 23.638142 30.434114 23.471054 30.434114 23.272439 L 30.434114 6.355509 C 30.434114 6.156895 30.509777 5.980348 30.661102 5.829023 C 30.79036 5.699766 30.957448 5.633561 31.162368 5.633561 L 38.731795 5.633561 C 38.93041 5.633561 39.106957 5.699766 39.258282 5.829023 C 39.387539 5.980348 39.453744 6.156895 39.453744 6.355509 Z M 49.598858 21.166492 C 49.797472 21.166492 49.974019 21.23585 50.125344 21.36826 C 50.257754 21.519585 50.327112 21.696132 50.327112 21.894746 L 50.327112 23.272439 C 50.327112 23.471054 50.257754 23.638142 50.125344 23.773705 C 49.974019 23.92503 49.797472 24.000693 49.598858 24.000693 L 42.685174 24.000693 C 42.480254 24.000693 42.313166 23.92503 42.183908 23.773705 C 42.032583 23.638142 41.95692 23.471054 41.95692 23.272439 L 41.95692 6.355509 C 41.95692 6.156895 42.032583 5.980348 42.183908 5.829023 C 42.313166 5.699766 42.480254 5.633561 42.685174 5.633561 L 44.059714 5.633561 C 44.261481 5.633561 44.434875 5.699766 44.586201 5.829023 C 44.721763 5.980348 44.787968 6.156895 44.787968 6.355509 L 44.787968 20.438238 C 44.787968 20.643158 44.863631 20.810247 45.014956 20.939504 C 45.144213 21.09083 45.311302 21.166492 45.509917 21.166492 Z M 61.843613 7.736355 C 61.843613 7.938122 61.78056 8.10521 61.64815 8.240773 C 61.496825 8.385793 61.323431 8.458303 61.121664 8.458303 L 56.380132 8.458303 C 56.181517 8.458303 56.014428 8.527661 55.885171 8.663223 C 55.733846 8.811396 55.658183 8.987943 55.658183 9.186557 L 55.658183 10.693507 C 55.658183 10.892122 55.733846 11.05921 55.885171 11.194773 C 56.014428 11.346098 56.181517 11.421761 56.380132 11.421761 L 59.51383 11.421761 C 59.734513 11.421761 59.920518 11.487966 60.071843 11.623528 C 60.2011 11.768549 60.267305 11.945095 60.267305 12.150015 L 60.267305 13.502487 C 60.267305 13.701101 60.2011 13.877648 60.071843 14.025821 C 59.920518 14.177146 59.734513 14.252809 59.51383 14.252809 L 56.380132 14.252809 C 56.181517 14.252809 56.014428 14.319014 55.885171 14.448271 C 55.733846 14.599596 55.658183 14.776143 55.658183 14.974757 L 55.658183 23.272439 C 55.658183 23.471054 55.591978 23.638142 55.456416 23.773705 C 55.30509 23.92503 55.131696 24.000693 54.929929 24.000693 L 53.555389 24.000693 C 53.350469 24.000693 53.18338 23.92503 53.054123 23.773705 C 52.902798 23.638142 52.827135 23.471054 52.827135 23.272439 L 52.827135 6.355509 C 52.827135 6.156895 52.902798 5.980348 53.054123 5.829023 C 53.18338 5.699766 53.350469 5.633561 53.555389 5.633561 L 61.121664 5.633561 C 61.323431 5.633561 61.496825 5.699766 61.64815 5.829023 C 61.78056 5.980348 61.843613 6.156895 61.843613 6.355509 Z M 74.545496 24.000693 C 74.195556 24.000693 73.962263 23.817841 73.842463 23.448985 C 73.795174 23.266134 73.725817 22.998161 73.640696 22.648221 C 73.542965 22.314044 73.420013 21.853762 73.268688 21.270529 C 73.148888 20.901673 72.906137 20.715669 72.540434 20.715669 L 68.533461 20.715669 C 68.164605 20.715669 67.921853 20.901673 67.805207 21.270529 C 67.685407 21.721353 67.587676 22.12804 67.505708 22.493743 C 67.401672 22.862599 67.310246 23.181013 67.228278 23.448985 C 67.111631 23.817841 66.878338 24.000693 66.525245 24.000693 L 65.100263 24.000693 C 64.863817 24.000693 64.671508 23.899809 64.520182 23.701194 C 64.372009 23.51519 64.331025 23.307118 64.39723 23.070672 C 64.564319 22.452759 64.772391 21.667758 65.021448 20.715669 C 65.273657 19.779342 65.551087 18.7642 65.853738 17.660785 C 66.150084 16.573133 66.45904 15.444497 66.777454 14.27803 C 67.080105 13.124173 67.370146 12.020758 67.650728 10.967784 C 67.921853 9.933727 68.17091 8.987943 68.404203 8.136737 C 68.624886 7.298141 68.801433 6.648703 68.93069 6.185268 C 68.968521 6.01818 69.050489 5.882617 69.179747 5.778581 C 69.315309 5.68085 69.466634 5.633561 69.633723 5.633561 L 71.440171 5.633561 C 71.60726 5.633561 71.758585 5.68085 71.890995 5.778581 C 72.023405 5.882617 72.105373 6.01818 72.143204 6.185268 C 72.726438 8.385793 73.237161 10.274209 73.672222 11.844211 C 74.088367 13.414213 74.438308 14.735159 74.725195 15.807048 C 75.005778 16.875784 75.239072 17.736448 75.421923 18.382734 C 75.589012 19.035325 75.730879 19.555506 75.850679 19.936973 C 75.94841 20.340507 76.030378 20.643158 76.099735 20.841773 C 76.150177 21.059304 76.197466 21.257918 76.247908 21.443922 C 76.301503 21.626774 76.361402 21.834847 76.424455 22.071293 C 76.474897 22.304586 76.556864 22.638763 76.676664 23.070672 C 76.742869 23.307118 76.701885 23.51519 76.553712 23.701194 C 76.402386 23.899809 76.210077 24.000693 75.973631 24.000693 Z M 68.955911 16.957752 C 68.889706 17.191045 68.933843 17.399118 69.082015 17.58197 C 69.233341 17.78689 69.42565 17.887773 69.658944 17.887773 L 71.41495 17.887773 C 71.648244 17.887773 71.837401 17.78689 71.988726 17.58197 C 72.140052 17.399118 72.184188 17.191045 72.117983 16.957752 C 71.982421 16.488012 71.850011 15.986747 71.714449 15.453955 C 71.563123 14.91801 71.405492 14.35054 71.238404 13.751543 C 71.187962 13.568691 71.096536 13.426824 70.960974 13.322787 C 70.828564 13.24082 70.686696 13.202988 70.538523 13.202988 C 70.387198 13.202988 70.24533 13.24082 70.109768 13.322787 C 69.977358 13.426824 69.885932 13.568691 69.83549 13.751543 C 69.684165 14.287488 69.542297 14.820279 69.406735 15.356224 C 69.255409 15.889016 69.107236 16.42496 68.955911 16.957752 Z M 88.848909 14.505018 C 89.400616 14.952689 89.835677 15.504397 90.154091 16.156988 C 90.450437 16.809579 90.633288 17.487391 90.702646 18.187272 C 90.768851 18.890305 90.708951 19.58388 90.526099 20.267997 C 90.343248 20.97103 90.034292 21.595248 89.602383 22.146956 C 89.16417 22.69551 88.606157 23.140029 87.918887 23.474206 C 87.23477 23.824146 86.434006 24.000693 85.516595 24.000693 L 79.955383 24.000693 C 79.750463 24.000693 79.583374 23.92503 79.450965 23.773705 C 79.299639 23.638142 79.227129 23.471054 79.227129 23.272439 L 79.227129 6.355509 C 79.227129 6.156895 79.299639 5.980348 79.450965 5.829023 C 79.583374 5.699766 79.750463 5.633561 79.955383 5.633561 L 84.082155 5.633561 C 85.254928 5.633561 86.232238 5.901533 87.020392 6.434325 C 87.786477 6.970269 88.363406 7.635471 88.744872 8.436235 C 89.129491 9.240152 89.321801 10.107121 89.321801 11.040295 C 89.302885 11.979774 89.088507 12.840437 88.672362 13.622286 C 88.590394 13.773611 88.565173 13.934395 88.599852 14.101483 C 88.631378 14.268572 88.716499 14.404134 88.848909 14.505018 Z M 82.780126 8.458303 C 82.581511 8.458303 82.414422 8.527661 82.285165 8.663223 C 82.13384 8.811396 82.058177 8.987943 82.058177 9.186557 L 82.058177 12.676502 C 82.058177 12.875116 82.13384 13.042205 82.285165 13.177767 C 82.414422 13.322787 82.581511 13.39845 82.780126 13.39845 L 84.138902 13.39845 C 84.655931 13.39845 85.090992 13.272346 85.440932 13.023289 C 85.794025 12.789996 86.058845 12.490497 86.244849 12.118489 C 86.427701 11.752785 86.519126 11.352403 86.519126 10.920495 C 86.519126 10.498045 86.434006 10.107121 86.266917 9.738265 C 86.084066 9.372561 85.816093 9.063605 85.466153 8.814549 C 85.116213 8.578103 84.671694 8.458303 84.138902 8.458303 Z M 85.563884 21.166492 C 86.080913 21.166492 86.515974 21.04354 86.865914 20.794484 C 87.219007 20.558038 87.483826 20.255387 87.669831 19.889684 C 87.836919 19.520828 87.928345 19.120446 87.944108 18.688537 C 87.944108 18.26924 87.858988 17.875163 87.691899 17.50946 C 87.509047 17.140604 87.241075 16.8348 86.891135 16.585744 C 86.541195 16.349297 86.099829 16.229498 85.563884 16.229498 L 82.780126 16.229498 C 82.581511 16.229498 82.414422 16.295703 82.285165 16.431265 C 82.13384 16.582591 82.058177 16.759137 82.058177 16.957752 L 82.058177 20.438238 C 82.058177 20.643158 82.13384 20.810247 82.285165 20.939504 C 82.414422 21.09083 82.581511 21.166492 82.780126 21.166492 Z M 100.869828 21.166492 C 101.068442 21.166492 101.244989 21.23585 101.393162 21.36826 C 101.528724 21.519585 101.598082 21.696132 101.598082 21.894746 L 101.598082 23.272439 C 101.598082 23.471054 101.528724 23.638142 101.393162 23.773705 C 101.244989 23.92503 101.068442 24.000693 100.869828 24.000693 L 93.956144 24.000693 C 93.751224 24.000693 93.584136 23.92503 93.451726 23.773705 C 93.303553 23.638142 93.22789 23.471054 93.22789 23.272439 L 93.22789 6.355509 C 93.22789 6.156895 93.303553 5.980348 93.451726 5.829023 C 93.584136 5.699766 93.751224 5.633561 93.956144 5.633561 L 95.330684 5.633561 C 95.532451 5.633561 95.705845 5.699766 95.857171 5.829023 C 95.992733 5.980348 96.058938 6.156895 96.058938 6.355509 L 96.058938 20.438238 C 96.058938 20.643158 96.134601 20.810247 96.285926 20.939504 C 96.415183 21.09083 96.582272 21.166492 96.780887 21.166492 Z M 113.114582 7.736355 C 113.114582 7.938122 113.05153 8.10521 112.91912 8.240773 C 112.767795 8.385793 112.594401 8.458303 112.392634 8.458303 L 107.651102 8.458303 C 107.452487 8.458303 107.285398 8.527661 107.156141 8.663223 C 107.004816 8.811396 106.929153 8.987943 106.929153 9.186557 L 106.929153 10.693507 C 106.929153 10.892122 107.004816 11.05921 107.156141 11.194773 C 107.285398 11.346098 107.452487 11.421761 107.651102 11.421761 L 110.7848 11.421761 C 111.005483 11.421761 111.191488 11.487966 111.33966 11.623528 C 111.47207 11.768549 111.538275 11.945095 111.538275 12.150015 L 111.538275 13.502487 C 111.538275 13.701101 111.47207 13.877648 111.33966 14.025821 C 111.191488 14.177146 111.005483 14.252809 110.7848 14.252809 L 107.651102 14.252809 C 107.452487 14.252809 107.285398 14.319014 107.156141 14.448271 C 107.004816 14.599596 106.929153 14.776143 106.929153 14.974757 L 106.929153 20.438238 C 106.929153 20.643158 107.004816 20.810247 107.156141 20.939504 C 107.285398 21.09083 107.452487 21.166492 107.651102 21.166492 L 112.392634 21.166492 C 112.594401 21.166492 112.767795 21.23585 112.91912 21.36826 C 113.05153 21.519585 113.114582 21.696132 113.114582 21.894746 L 113.114582 23.272439 C 113.114582 23.471054 113.05153 23.638142 112.91912 23.773705 C 112.767795 23.92503 112.594401 24.000693 112.392634 24.000693 L 104.826359 24.000693 C 104.621439 24.000693 104.45435 23.92503 104.325093 23.773705 C 104.173768 23.638142 104.098105 23.471054 104.098105 23.272439 L 104.098105 6.355509 C 104.098105 6.156895 104.173768 5.980348 104.325093 5.829023 C 104.45435 5.699766 104.621439 5.633561 104.826359 5.633561 L 112.392634 5.633561 C 112.594401 5.633561 112.767795 5.699766 112.91912 5.829023 C 113.05153 5.980348 113.114582 6.156895 113.114582 6.355509 Z M 113.114582 7.736355 " stroke="#000000" stroke-width="1.879538" stroke-opacity="1" stroke-miterlimit="4"/><g fill="#f7efef" fill-opacity="1"><g transform="translate(8.786989, 30.553829)"><g><path d="M 7.109375 -22.75 C 8.910156 -22.75 10.265625 -22.265625 11.171875 -21.296875 C 12.085938 -20.328125 12.546875 -18.953125 12.546875 -17.171875 C 12.546875 -16.960938 12.484375 -16.796875 12.359375 -16.671875 C 12.210938 -16.523438 12.035156 -16.453125 11.828125 -16.453125 L 9.75 -16.453125 C 9.539062 -16.453125 9.375 -16.523438 9.25 -16.671875 C 9.101562 -16.796875 9.03125 -16.960938 9.03125 -17.171875 L 9.03125 -17.390625 C 9.03125 -18.171875 8.875 -18.738281 8.5625 -19.09375 C 8.257812 -19.425781 7.804688 -19.59375 7.203125 -19.59375 C 6.597656 -19.59375 6.144531 -19.425781 5.84375 -19.09375 C 5.507812 -18.738281 5.34375 -18.171875 5.34375 -17.390625 C 5.34375 -16.972656 5.394531 -16.585938 5.5 -16.234375 C 5.601562 -15.859375 5.773438 -15.488281 6.015625 -15.125 C 6.265625 -14.75 6.597656 -14.351562 7.015625 -13.9375 C 7.410156 -13.5 7.90625 -13.035156 8.5 -12.546875 C 9.269531 -11.898438 9.925781 -11.300781 10.46875 -10.75 C 10.976562 -10.164062 11.390625 -9.601562 11.703125 -9.0625 C 12.015625 -8.507812 12.242188 -7.953125 12.390625 -7.390625 C 12.515625 -6.828125 12.578125 -6.226562 12.578125 -5.59375 C 12.578125 -3.789062 12.117188 -2.410156 11.203125 -1.453125 C 10.273438 -0.484375 8.898438 0 7.078125 0 C 5.253906 0 3.878906 -0.484375 2.953125 -1.453125 C 2.015625 -2.410156 1.546875 -3.789062 1.546875 -5.59375 L 1.546875 -6.265625 C 1.546875 -6.453125 1.617188 -6.617188 1.765625 -6.765625 C 1.890625 -6.890625 2.046875 -6.953125 2.234375 -6.953125 L 4.34375 -6.953125 C 4.53125 -6.953125 4.695312 -6.890625 4.84375 -6.765625 C 4.988281 -6.617188 5.0625 -6.453125 5.0625 -6.265625 L 5.0625 -5.375 C 5.0625 -4.582031 5.226562 -4.019531 5.5625 -3.6875 C 5.882812 -3.363281 6.347656 -3.203125 6.953125 -3.203125 C 7.554688 -3.203125 8.03125 -3.363281 8.375 -3.6875 C 8.707031 -4.019531 8.875 -4.582031 8.875 -5.375 C 8.875 -5.769531 8.820312 -6.148438 8.71875 -6.515625 C 8.613281 -6.890625 8.441406 -7.265625 8.203125 -7.640625 C 7.953125 -8.015625 7.628906 -8.414062 7.234375 -8.84375 C 6.816406 -9.257812 6.3125 -9.71875 5.71875 -10.21875 C 4.945312 -10.851562 4.300781 -11.453125 3.78125 -12.015625 C 3.269531 -12.578125 2.859375 -13.132812 2.546875 -13.6875 C 2.210938 -14.25 1.984375 -14.8125 1.859375 -15.375 C 1.710938 -15.925781 1.640625 -16.523438 1.640625 -17.171875 C 1.640625 -18.953125 2.097656 -20.328125 3.015625 -21.296875 C 3.921875 -22.265625 5.285156 -22.75 7.109375 -22.75 Z M 7.109375 -22.75 "/></g></g></g><g fill="#f7efef" fill-opacity="1"><g transform="translate(22.907587, 30.553829)"><g><path d="M 11.265625 -21.859375 C 11.265625 -22.109375 11.359375 -22.328125 11.546875 -22.515625 C 11.710938 -22.671875 11.929688 -22.75 12.203125 -22.75 L 13.875 -22.75 C 14.125 -22.75 14.34375 -22.671875 14.53125 -22.515625 C 14.695312 -22.328125 14.78125 -22.109375 14.78125 -21.859375 L 14.78125 -0.90625 C 14.78125 -0.65625 14.695312 -0.445312 14.53125 -0.28125 C 14.34375 -0.09375 14.125 0 13.875 0 L 12.203125 0 C 11.929688 0 11.710938 -0.09375 11.546875 -0.28125 C 11.359375 -0.445312 11.265625 -0.65625 11.265625 -0.90625 L 11.265625 -8.71875 C 11.265625 -8.96875 11.179688 -9.1875 11.015625 -9.375 C 10.835938 -9.539062 10.625 -9.625 10.375 -9.625 L 5.96875 -9.625 C 5.71875 -9.625 5.507812 -9.539062 5.34375 -9.375 C 5.15625 -9.1875 5.0625 -8.96875 5.0625 -8.71875 L 5.0625 -0.90625 C 5.0625 -0.65625 4.976562 -0.445312 4.8125 -0.28125 C 4.625 -0.09375 4.40625 0 4.15625 0 L 2.453125 0 C 2.203125 0 1.992188 -0.09375 1.828125 -0.28125 C 1.640625 -0.445312 1.546875 -0.65625 1.546875 -0.90625 L 1.546875 -21.859375 C 1.546875 -22.109375 1.640625 -22.328125 1.828125 -22.515625 C 1.992188 -22.671875 2.203125 -22.75 2.453125 -22.75 L 4.15625 -22.75 C 4.40625 -22.75 4.625 -22.671875 4.8125 -22.515625 C 4.976562 -22.328125 5.0625 -22.109375 5.0625 -21.859375 L 5.0625 -14.03125 C 5.0625 -13.78125 5.15625 -13.570312 5.34375 -13.40625 C 5.507812 -13.226562 5.71875 -13.140625 5.96875 -13.140625 L 10.375 -13.140625 C 10.625 -13.140625 10.835938 -13.226562 11.015625 -13.40625 C 11.179688 -13.570312 11.265625 -13.78125 11.265625 -14.03125 Z M 11.265625 -21.859375 "/></g></g></g><g fill="#f7efef" fill-opacity="1"><g transform="translate(39.231633, 30.553829)"><g><path d="M 12.734375 -20.15625 C 12.734375 -19.90625 12.648438 -19.695312 12.484375 -19.53125 C 12.296875 -19.34375 12.078125 -19.25 11.828125 -19.25 L 5.96875 -19.25 C 5.71875 -19.25 5.507812 -19.164062 5.34375 -19 C 5.15625 -18.8125 5.0625 -18.59375 5.0625 -18.34375 L 5.0625 -16.484375 C 5.0625 -16.234375 5.15625 -16.023438 5.34375 -15.859375 C 5.507812 -15.671875 5.71875 -15.578125 5.96875 -15.578125 L 9.84375 -15.578125 C 10.113281 -15.578125 10.34375 -15.5 10.53125 -15.34375 C 10.6875 -15.15625 10.765625 -14.9375 10.765625 -14.6875 L 10.765625 -13.015625 C 10.765625 -12.765625 10.6875 -12.546875 10.53125 -12.359375 C 10.34375 -12.171875 10.113281 -12.078125 9.84375 -12.078125 L 5.96875 -12.078125 C 5.71875 -12.078125 5.507812 -11.992188 5.34375 -11.828125 C 5.15625 -11.640625 5.0625 -11.421875 5.0625 -11.171875 L 5.0625 -4.40625 C 5.0625 -4.15625 5.15625 -3.945312 5.34375 -3.78125 C 5.507812 -3.601562 5.71875 -3.515625 5.96875 -3.515625 L 11.828125 -3.515625 C 12.078125 -3.515625 12.296875 -3.429688 12.484375 -3.265625 C 12.648438 -3.078125 12.734375 -2.859375 12.734375 -2.609375 L 12.734375 -0.90625 C 12.734375 -0.65625 12.648438 -0.445312 12.484375 -0.28125 C 12.296875 -0.09375 12.078125 0 11.828125 0 L 2.453125 0 C 2.203125 0 1.992188 -0.09375 1.828125 -0.28125 C 1.640625 -0.445312 1.546875 -0.65625 1.546875 -0.90625 L 1.546875 -21.859375 C 1.546875 -22.109375 1.640625 -22.328125 1.828125 -22.515625 C 1.992188 -22.671875 2.203125 -22.75 2.453125 -22.75 L 11.828125 -22.75 C 12.078125 -22.75 12.296875 -22.671875 12.484375 -22.515625 C 12.648438 -22.328125 12.734375 -22.109375 12.734375 -21.859375 Z M 12.734375 -20.15625 "/></g></g></g><g fill="#f7efef" fill-opacity="1"><g transform="translate(53.507415, 30.553829)"><g><path d="M 11.015625 -3.515625 C 11.265625 -3.515625 11.484375 -3.429688 11.671875 -3.265625 C 11.835938 -3.078125 11.921875 -2.859375 11.921875 -2.609375 L 11.921875 -0.90625 C 11.921875 -0.65625 11.835938 -0.445312 11.671875 -0.28125 C 11.484375 -0.09375 11.265625 0 11.015625 0 L 2.453125 0 C 2.203125 0 1.992188 -0.09375 1.828125 -0.28125 C 1.640625 -0.445312 1.546875 -0.65625 1.546875 -0.90625 L 1.546875 -21.859375 C 1.546875 -22.109375 1.640625 -22.328125 1.828125 -22.515625 C 1.992188 -22.671875 2.203125 -22.75 2.453125 -22.75 L 4.15625 -22.75 C 4.40625 -22.75 4.625 -22.671875 4.8125 -22.515625 C 4.976562 -22.328125 5.0625 -22.109375 5.0625 -21.859375 L 5.0625 -4.40625 C 5.0625 -4.15625 5.15625 -3.945312 5.34375 -3.78125 C 5.507812 -3.601562 5.71875 -3.515625 5.96875 -3.515625 Z M 11.015625 -3.515625 "/></g></g></g><g fill="#f7efef" fill-opacity="1"><g transform="translate(66.97629, 30.553829)"><g><path d="M 12.734375 -20.15625 C 12.734375 -19.90625 12.648438 -19.695312 12.484375 -19.53125 C 12.296875 -19.34375 12.078125 -19.25 11.828125 -19.25 L 5.96875 -19.25 C 5.71875 -19.25 5.507812 -19.164062 5.34375 -19 C 5.15625 -18.8125 5.0625 -18.59375 5.0625 -18.34375 L 5.0625 -16.484375 C 5.0625 -16.234375 5.15625 -16.023438 5.34375 -15.859375 C 5.507812 -15.671875 5.71875 -15.578125 5.96875 -15.578125 L 9.84375 -15.578125 C 10.113281 -15.578125 10.34375 -15.5 10.53125 -15.34375 C 10.6875 -15.15625 10.765625 -14.9375 10.765625 -14.6875 L 10.765625 -13.015625 C 10.765625 -12.765625 10.6875 -12.546875 10.53125 -12.359375 C 10.34375 -12.171875 10.113281 -12.078125 9.84375 -12.078125 L 5.96875 -12.078125 C 5.71875 -12.078125 5.507812 -11.992188 5.34375 -11.828125 C 5.15625 -11.640625 5.0625 -11.421875 5.0625 -11.171875 L 5.0625 -0.90625 C 5.0625 -0.65625 4.976562 -0.445312 4.8125 -0.28125 C 4.625 -0.09375 4.40625 0 4.15625 0 L 2.453125 0 C 2.203125 0 1.992188 -0.09375 1.828125 -0.28125 C 1.640625 -0.445312 1.546875 -0.65625 1.546875 -0.90625 L 1.546875 -21.859375 C 1.546875 -22.109375 1.640625 -22.328125 1.828125 -22.515625 C 1.992188 -22.671875 2.203125 -22.75 2.453125 -22.75 L 11.828125 -22.75 C 12.078125 -22.75 12.296875 -22.671875 12.484375 -22.515625 C 12.648438 -22.328125 12.734375 -22.109375 12.734375 -21.859375 Z M 12.734375 -20.15625 "/></g></g></g><g fill="#f7efef" fill-opacity="1"><g transform="translate(81.252071, 30.553829)"><g><path d="M 14.1875 0 C 13.75 0 13.457031 -0.226562 13.3125 -0.6875 C 13.25 -0.914062 13.171875 -1.242188 13.078125 -1.671875 C 12.953125 -2.085938 12.796875 -2.660156 12.609375 -3.390625 C 12.460938 -3.835938 12.160156 -4.0625 11.703125 -4.0625 L 6.734375 -4.0625 C 6.273438 -4.0625 5.976562 -3.835938 5.84375 -3.390625 C 5.695312 -2.828125 5.570312 -2.316406 5.46875 -1.859375 C 5.34375 -1.410156 5.226562 -1.019531 5.125 -0.6875 C 4.976562 -0.226562 4.6875 0 4.25 0 L 2.484375 0 C 2.191406 0 1.953125 -0.125 1.765625 -0.375 C 1.578125 -0.601562 1.523438 -0.863281 1.609375 -1.15625 C 1.816406 -1.914062 2.078125 -2.882812 2.390625 -4.0625 C 2.703125 -5.226562 3.046875 -6.492188 3.421875 -7.859375 C 3.785156 -9.203125 4.164062 -10.597656 4.5625 -12.046875 C 4.9375 -13.472656 5.300781 -14.835938 5.65625 -16.140625 C 5.976562 -17.421875 6.285156 -18.59375 6.578125 -19.65625 C 6.847656 -20.6875 7.066406 -21.492188 7.234375 -22.078125 C 7.273438 -22.285156 7.378906 -22.453125 7.546875 -22.578125 C 7.710938 -22.691406 7.898438 -22.75 8.109375 -22.75 L 10.34375 -22.75 C 10.550781 -22.75 10.734375 -22.691406 10.890625 -22.578125 C 11.054688 -22.453125 11.160156 -22.285156 11.203125 -22.078125 C 11.929688 -19.335938 12.566406 -17 13.109375 -15.0625 C 13.617188 -13.113281 14.050781 -11.476562 14.40625 -10.15625 C 14.757812 -8.832031 15.050781 -7.765625 15.28125 -6.953125 C 15.476562 -6.148438 15.648438 -5.507812 15.796875 -5.03125 C 15.921875 -4.53125 16.023438 -4.15625 16.109375 -3.90625 C 16.171875 -3.644531 16.234375 -3.398438 16.296875 -3.171875 C 16.359375 -2.941406 16.429688 -2.679688 16.515625 -2.390625 C 16.578125 -2.097656 16.679688 -1.6875 16.828125 -1.15625 C 16.910156 -0.863281 16.859375 -0.601562 16.671875 -0.375 C 16.484375 -0.125 16.242188 0 15.953125 0 Z M 7.265625 -8.71875 C 7.179688 -8.4375 7.234375 -8.179688 7.421875 -7.953125 C 7.609375 -7.703125 7.847656 -7.578125 8.140625 -7.578125 L 10.3125 -7.578125 C 10.601562 -7.578125 10.835938 -7.703125 11.015625 -7.953125 C 11.203125 -8.179688 11.253906 -8.4375 11.171875 -8.71875 C 11.003906 -9.300781 10.84375 -9.925781 10.6875 -10.59375 C 10.5 -11.25 10.300781 -11.953125 10.09375 -12.703125 C 10.03125 -12.929688 9.914062 -13.101562 9.75 -13.21875 C 9.582031 -13.320312 9.40625 -13.375 9.21875 -13.375 C 9.03125 -13.375 8.851562 -13.320312 8.6875 -13.21875 C 8.519531 -13.101562 8.410156 -12.929688 8.359375 -12.703125 C 8.171875 -12.035156 7.992188 -11.375 7.828125 -10.71875 C 7.640625 -10.050781 7.453125 -9.382812 7.265625 -8.71875 Z M 7.265625 -8.71875 "/></g></g></g><g fill="#f7efef" fill-opacity="1"><g transform="translate(99.686433, 30.553829)"><g><path d="M 13.46875 -11.765625 C 14.15625 -11.203125 14.695312 -10.519531 15.09375 -9.71875 C 15.457031 -8.90625 15.679688 -8.066406 15.765625 -7.203125 C 15.847656 -6.335938 15.773438 -5.476562 15.546875 -4.625 C 15.328125 -3.757812 14.945312 -2.984375 14.40625 -2.296875 C 13.863281 -1.609375 13.171875 -1.0625 12.328125 -0.65625 C 11.472656 -0.21875 10.476562 0 9.34375 0 L 2.453125 0 C 2.203125 0 1.992188 -0.09375 1.828125 -0.28125 C 1.640625 -0.445312 1.546875 -0.65625 1.546875 -0.90625 L 1.546875 -21.859375 C 1.546875 -22.109375 1.640625 -22.328125 1.828125 -22.515625 C 1.992188 -22.671875 2.203125 -22.75 2.453125 -22.75 L 7.578125 -22.75 C 9.023438 -22.75 10.234375 -22.421875 11.203125 -21.765625 C 12.160156 -21.097656 12.875 -20.269531 13.34375 -19.28125 C 13.820312 -18.289062 14.0625 -17.210938 14.0625 -16.046875 C 14.039062 -14.890625 13.769531 -13.828125 13.25 -12.859375 C 13.15625 -12.671875 13.125 -12.472656 13.15625 -12.265625 C 13.195312 -12.054688 13.300781 -11.890625 13.46875 -11.765625 Z M 5.96875 -19.25 C 5.71875 -19.25 5.507812 -19.164062 5.34375 -19 C 5.15625 -18.8125 5.0625 -18.59375 5.0625 -18.34375 L 5.0625 -14.03125 C 5.0625 -13.78125 5.15625 -13.570312 5.34375 -13.40625 C 5.507812 -13.226562 5.71875 -13.140625 5.96875 -13.140625 L 7.640625 -13.140625 C 8.273438 -13.140625 8.8125 -13.289062 9.25 -13.59375 C 9.6875 -13.882812 10.019531 -14.257812 10.25 -14.71875 C 10.476562 -15.175781 10.59375 -15.671875 10.59375 -16.203125 C 10.59375 -16.722656 10.488281 -17.210938 10.28125 -17.671875 C 10.050781 -18.117188 9.71875 -18.5 9.28125 -18.8125 C 8.84375 -19.101562 8.296875 -19.25 7.640625 -19.25 Z M 9.40625 -3.515625 C 10.050781 -3.515625 10.585938 -3.664062 11.015625 -3.96875 C 11.453125 -4.257812 11.785156 -4.632812 12.015625 -5.09375 C 12.222656 -5.550781 12.335938 -6.046875 12.359375 -6.578125 C 12.359375 -7.097656 12.253906 -7.585938 12.046875 -8.046875 C 11.816406 -8.492188 11.484375 -8.875 11.046875 -9.1875 C 10.617188 -9.476562 10.070312 -9.625 9.40625 -9.625 L 5.96875 -9.625 C 5.71875 -9.625 5.507812 -9.539062 5.34375 -9.375 C 5.15625 -9.1875 5.0625 -8.96875 5.0625 -8.71875 L 5.0625 -4.40625 C 5.0625 -4.15625 5.15625 -3.945312 5.34375 -3.78125 C 5.507812 -3.601562 5.71875 -3.515625 5.96875 -3.515625 Z M 9.40625 -3.515625 "/></g></g></g><g fill="#f7efef" fill-opacity="1"><g transform="translate(117.034602, 30.553829)"><g><path d="M 11.015625 -3.515625 C 11.265625 -3.515625 11.484375 -3.429688 11.671875 -3.265625 C 11.835938 -3.078125 11.921875 -2.859375 11.921875 -2.609375 L 11.921875 -0.90625 C 11.921875 -0.65625 11.835938 -0.445312 11.671875 -0.28125 C 11.484375 -0.09375 11.265625 0 11.015625 0 L 2.453125 0 C 2.203125 0 1.992188 -0.09375 1.828125 -0.28125 C 1.640625 -0.445312 1.546875 -0.65625 1.546875 -0.90625 L 1.546875 -21.859375 C 1.546875 -22.109375 1.640625 -22.328125 1.828125 -22.515625 C 1.992188 -22.671875 2.203125 -22.75 2.453125 -22.75 L 4.15625 -22.75 C 4.40625 -22.75 4.625 -22.671875 4.8125 -22.515625 C 4.976562 -22.328125 5.0625 -22.109375 5.0625 -21.859375 L 5.0625 -4.40625 C 5.0625 -4.15625 5.15625 -3.945312 5.34375 -3.78125 C 5.507812 -3.601562 5.71875 -3.515625 5.96875 -3.515625 Z M 11.015625 -3.515625 "/></g></g></g><g fill="#f7efef" fill-opacity="1"><g transform="translate(130.503477, 30.553829)"><g><path d="M 12.734375 -20.15625 C 12.734375 -19.90625 12.648438 -19.695312 12.484375 -19.53125 C 12.296875 -19.34375 12.078125 -19.25 11.828125 -19.25 L 5.96875 -19.25 C 5.71875 -19.25 5.507812 -19.164062 5.34375 -19 C 5.15625 -18.8125 5.0625 -18.59375 5.0625 -18.34375 L 5.0625 -16.484375 C 5.0625 -16.234375 5.15625 -16.023438 5.34375 -15.859375 C 5.507812 -15.671875 5.71875 -15.578125 5.96875 -15.578125 L 9.84375 -15.578125 C 10.113281 -15.578125 10.34375 -15.5 10.53125 -15.34375 C 10.6875 -15.15625 10.765625 -14.9375 10.765625 -14.6875 L 10.765625 -13.015625 C 10.765625 -12.765625 10.6875 -12.546875 10.53125 -12.359375 C 10.34375 -12.171875 10.113281 -12.078125 9.84375 -12.078125 L 5.96875 -12.078125 C 5.71875 -12.078125 5.507812 -11.992188 5.34375 -11.828125 C 5.15625 -11.640625 5.0625 -11.421875 5.0625 -11.171875 L 5.0625 -4.40625 C 5.0625 -4.15625 5.15625 -3.945312 5.34375 -3.78125 C 5.507812 -3.601562 5.71875 -3.515625 5.96875 -3.515625 L 11.828125 -3.515625 C 12.078125 -3.515625 12.296875 -3.429688 12.484375 -3.265625 C 12.648438 -3.078125 12.734375 -2.859375 12.734375 -2.609375 L 12.734375 -0.90625 C 12.734375 -0.65625 12.648438 -0.445312 12.484375 -0.28125 C 12.296875 -0.09375 12.078125 0 11.828125 0 L 2.453125 0 C 2.203125 0 1.992188 -0.09375 1.828125 -0.28125 C 1.640625 -0.445312 1.546875 -0.65625 1.546875 -0.90625 L 1.546875 -21.859375 C 1.546875 -22.109375 1.640625 -22.328125 1.828125 -22.515625 C 1.992188 -22.671875 2.203125 -22.75 2.453125 -22.75 L 11.828125 -22.75 C 12.078125 -22.75 12.296875 -22.671875 12.484375 -22.515625 C 12.648438 -22.328125 12.734375 -22.109375 12.734375 -21.859375 Z M 12.734375 -20.15625 "/></g></g></g><g clip-path="url(#f16af83669)"><path fill="#ff5757" d="M -9.960938 30.996094 L 163.726562 30.996094 L 163.726562 35.996094 L -9.960938 35.996094 Z M -9.960938 30.996094 " fill-opacity="1" fill-rule="nonzero"/></g><g clip-path="url(#3582384439)"><path fill="#abbbbb" d="M 6.335938 35.996094 L -1.617188 35.996094 L -1.617188 37.375 C -1.617188 39.777344 -1.378906 42.136719 -0.910156 44.5 L 2.832031 62.804688 C 2.949219 63.476562 3.539062 63.90625 4.210938 63.90625 L 6.296875 63.90625 C 6.964844 63.90625 7.515625 63.433594 7.671875 62.804688 L 11.414062 44.5 C 11.886719 42.175781 12.121094 39.777344 12.121094 37.375 L 12.121094 35.957031 L 6.335938 35.957031 Z M 149.554688 35.996094 L 141.601562 35.996094 L 141.601562 37.375 C 141.601562 39.777344 141.835938 42.136719 142.308594 44.5 L 146.050781 62.804688 C 146.167969 63.476562 146.757812 63.90625 147.425781 63.90625 L 149.515625 63.90625 C 150.183594 63.90625 150.734375 63.433594 150.890625 62.804688 L 154.632812 44.5 C 155.105469 42.175781 155.339844 39.777344 155.339844 37.375 L 155.339844 35.957031 L 149.554688 35.957031 Z M 149.554688 35.996094 " fill-opacity="1" fill-rule="nonzero"/></g><g clip-path="url(#70cd16ebac)"><path stroke-linecap="butt" transform="matrix(0.393672, 0, 0, 0.393672, -10.041605, 30.681709)" fill="none" stroke-linejoin="round" d="M 0.800266 0.798595 L 441.998347 0.798595 L 441.998347 13.499511 L 0.800266 13.499511 Z M 0.800266 0.798595 " stroke="#333333" stroke-width="1.5" stroke-opacity="1" stroke-miterlimit="10"/></g></svg>