<svg xmlns="http://www.w3.org/2000/svg" xmlns:xlink="http://www.w3.org/1999/xlink" width="200" zoomAndPan="magnify" viewBox="0 0 150 44.999999" height="60" preserveAspectRatio="xMidYMid meet" version="1.0"><defs><filter x="0%" y="0%" width="100%" height="100%" id="8c604cbc4b"><feColorMatrix values="0 0 0 0 1 0 0 0 0 1 0 0 0 0 1 0 0 0 1 0" color-interpolation-filters="sRGB"/></filter><g/><mask id="67e8bae569"><g filter="url(#8c604cbc4b)"><rect x="-15" width="180" fill="#000000" y="-4.5" height="53.999999" fill-opacity="0.28"/></g></mask><clipPath id="9cad95ebfe"><path d="M 1.074219 0.863281 L 23.164062 0.863281 L 23.164062 28.035156 L 1.074219 28.035156 Z M 1.074219 0.863281 " clip-rule="nonzero"/></clipPath><clipPath id="9870e2089d"><rect x="0" width="25" y="0" height="29"/></clipPath><clipPath id="906caa48f2"><path d="M 0 30.722656 L 150 30.722656 L 150 36 L 0 36 Z M 0 30.722656 " clip-rule="nonzero"/></clipPath><clipPath id="19a41ca91b"><path d="M 0 35 L 150 35 L 150 36.667969 L 0 36.667969 Z M 0 35 " clip-rule="nonzero"/></clipPath><clipPath id="63dd1cf939"><path d="M 0 30.722656 L 150 30.722656 L 150 36.667969 L 0 36.667969 Z M 0 30.722656 " clip-rule="nonzero"/></clipPath></defs><g fill="#000000" fill-opacity="1"><g transform="translate(8.786989, 30.553829)"><g><path d="M 7.109375 -22.75 C 8.910156 -22.75 10.265625 -22.265625 11.171875 -21.296875 C 12.085938 -20.328125 12.546875 -18.953125 12.546875 -17.171875 C 12.546875 -16.960938 12.484375 -16.796875 12.359375 -16.671875 C 12.210938 -16.523438 12.035156 -16.453125 11.828125 -16.453125 L 9.75 -16.453125 C 9.539062 -16.453125 9.375 -16.523438 9.25 -16.671875 C 9.101562 -16.796875 9.03125 -16.960938 9.03125 -17.171875 L 9.03125 -17.390625 C 9.03125 -18.171875 8.875 -18.738281 8.5625 -19.09375 C 8.257812 -19.425781 7.804688 -19.59375 7.203125 -19.59375 C 6.597656 -19.59375 6.144531 -19.425781 5.84375 -19.09375 C 5.507812 -18.738281 5.34375 -18.171875 5.34375 -17.390625 C 5.34375 -16.972656 5.394531 -16.585938 5.5 -16.234375 C 5.601562 -15.859375 5.773438 -15.488281 6.015625 -15.125 C 6.265625 -14.75 6.597656 -14.351562 7.015625 -13.9375 C 7.410156 -13.5 7.90625 -13.035156 8.5 -12.546875 C 9.269531 -11.898438 9.925781 -11.300781 10.46875 -10.75 C 10.976562 -10.164062 11.390625 -9.601562 11.703125 -9.0625 C 12.015625 -8.507812 12.242188 -7.953125 12.390625 -7.390625 C 12.515625 -6.828125 12.578125 -6.226562 12.578125 -5.59375 C 12.578125 -3.789062 12.117188 -2.410156 11.203125 -1.453125 C 10.273438 -0.484375 8.898438 0 7.078125 0 C 5.253906 0 3.878906 -0.484375 2.953125 -1.453125 C 2.015625 -2.410156 1.546875 -3.789062 1.546875 -5.59375 L 1.546875 -6.265625 C 1.546875 -6.453125 1.617188 -6.617188 1.765625 -6.765625 C 1.890625 -6.890625 2.046875 -6.953125 2.234375 -6.953125 L 4.34375 -6.953125 C 4.53125 -6.953125 4.695312 -6.890625 4.84375 -6.765625 C 4.988281 -6.617188 5.0625 -6.453125 5.0625 -6.265625 L 5.0625 -5.375 C 5.0625 -4.582031 5.226562 -4.019531 5.5625 -3.6875 C 5.882812 -3.363281 6.347656 -3.203125 6.953125 -3.203125 C 7.554688 -3.203125 8.03125 -3.363281 8.375 -3.6875 C 8.707031 -4.019531 8.875 -4.582031 8.875 -5.375 C 8.875 -5.769531 8.820312 -6.148438 8.71875 -6.515625 C 8.613281 -6.890625 8.441406 -7.265625 8.203125 -7.640625 C 7.953125 -8.015625 7.628906 -8.414062 7.234375 -8.84375 C 6.816406 -9.257812 6.3125 -9.71875 5.71875 -10.21875 C 4.945312 -10.851562 4.300781 -11.453125 3.78125 -12.015625 C 3.269531 -12.578125 2.859375 -13.132812 2.546875 -13.6875 C 2.210938 -14.25 1.984375 -14.8125 1.859375 -15.375 C 1.710938 -15.925781 1.640625 -16.523438 1.640625 -17.171875 C 1.640625 -18.953125 2.097656 -20.328125 3.015625 -21.296875 C 3.921875 -22.265625 5.285156 -22.75 7.109375 -22.75 Z M 7.109375 -22.75 "/></g></g></g><g fill="#000000" fill-opacity="1"><g transform="translate(22.907587, 30.553829)"><g><path d="M 11.265625 -21.859375 C 11.265625 -22.109375 11.359375 -22.328125 11.546875 -22.515625 C 11.710938 -22.671875 11.929688 -22.75 12.203125 -22.75 L 13.875 -22.75 C 14.125 -22.75 14.34375 -22.671875 14.53125 -22.515625 C 14.695312 -22.328125 14.78125 -22.109375 14.78125 -21.859375 L 14.78125 -0.90625 C 14.78125 -0.65625 14.695312 -0.445312 14.53125 -0.28125 C 14.34375 -0.09375 14.125 0 13.875 0 L 12.203125 0 C 11.929688 0 11.710938 -0.09375 11.546875 -0.28125 C 11.359375 -0.445312 11.265625 -0.65625 11.265625 -0.90625 L 11.265625 -8.71875 C 11.265625 -8.96875 11.179688 -9.1875 11.015625 -9.375 C 10.835938 -9.539062 10.625 -9.625 10.375 -9.625 L 5.96875 -9.625 C 5.71875 -9.625 5.507812 -9.539062 5.34375 -9.375 C 5.15625 -9.1875 5.0625 -8.96875 5.0625 -8.71875 L 5.0625 -0.90625 C 5.0625 -0.65625 4.976562 -0.445312 4.8125 -0.28125 C 4.625 -0.09375 4.40625 0 4.15625 0 L 2.453125 0 C 2.203125 0 1.992188 -0.09375 1.828125 -0.28125 C 1.640625 -0.445312 1.546875 -0.65625 1.546875 -0.90625 L 1.546875 -21.859375 C 1.546875 -22.109375 1.640625 -22.328125 1.828125 -22.515625 C 1.992188 -22.671875 2.203125 -22.75 2.453125 -22.75 L 4.15625 -22.75 C 4.40625 -22.75 4.625 -22.671875 4.8125 -22.515625 C 4.976562 -22.328125 5.0625 -22.109375 5.0625 -21.859375 L 5.0625 -14.03125 C 5.0625 -13.78125 5.15625 -13.570312 5.34375 -13.40625 C 5.507812 -13.226562 5.71875 -13.140625 5.96875 -13.140625 L 10.375 -13.140625 C 10.625 -13.140625 10.835938 -13.226562 11.015625 -13.40625 C 11.179688 -13.570312 11.265625 -13.78125 11.265625 -14.03125 Z M 11.265625 -21.859375 "/></g></g></g><g fill="#000000" fill-opacity="1"><g transform="translate(39.231633, 30.553829)"><g><path d="M 12.734375 -20.15625 C 12.734375 -19.90625 12.648438 -19.695312 12.484375 -19.53125 C 12.296875 -19.34375 12.078125 -19.25 11.828125 -19.25 L 5.96875 -19.25 C 5.71875 -19.25 5.507812 -19.164062 5.34375 -19 C 5.15625 -18.8125 5.0625 -18.59375 5.0625 -18.34375 L 5.0625 -16.484375 C 5.0625 -16.234375 5.15625 -16.023438 5.34375 -15.859375 C 5.507812 -15.671875 5.71875 -15.578125 5.96875 -15.578125 L 9.84375 -15.578125 C 10.113281 -15.578125 10.34375 -15.5 10.53125 -15.34375 C 10.6875 -15.15625 10.765625 -14.9375 10.765625 -14.6875 L 10.765625 -13.015625 C 10.765625 -12.765625 10.6875 -12.546875 10.53125 -12.359375 C 10.34375 -12.171875 10.113281 -12.078125 9.84375 -12.078125 L 5.96875 -12.078125 C 5.71875 -12.078125 5.507812 -11.992188 5.34375 -11.828125 C 5.15625 -11.640625 5.0625 -11.421875 5.0625 -11.171875 L 5.0625 -4.40625 C 5.0625 -4.15625 5.15625 -3.945312 5.34375 -3.78125 C 5.507812 -3.601562 5.71875 -3.515625 5.96875 -3.515625 L 11.828125 -3.515625 C 12.078125 -3.515625 12.296875 -3.429688 12.484375 -3.265625 C 12.648438 -3.078125 12.734375 -2.859375 12.734375 -2.609375 L 12.734375 -0.90625 C 12.734375 -0.65625 12.648438 -0.445312 12.484375 -0.28125 C 12.296875 -0.09375 12.078125 0 11.828125 0 L 2.453125 0 C 2.203125 0 1.992188 -0.09375 1.828125 -0.28125 C 1.640625 -0.445312 1.546875 -0.65625 1.546875 -0.90625 L 1.546875 -21.859375 C 1.546875 -22.109375 1.640625 -22.328125 1.828125 -22.515625 C 1.992188 -22.671875 2.203125 -22.75 2.453125 -22.75 L 11.828125 -22.75 C 12.078125 -22.75 12.296875 -22.671875 12.484375 -22.515625 C 12.648438 -22.328125 12.734375 -22.109375 12.734375 -21.859375 Z M 12.734375 -20.15625 "/></g></g></g><g fill="#000000" fill-opacity="1"><g transform="translate(53.507415, 30.553829)"><g><path d="M 11.015625 -3.515625 C 11.265625 -3.515625 11.484375 -3.429688 11.671875 -3.265625 C 11.835938 -3.078125 11.921875 -2.859375 11.921875 -2.609375 L 11.921875 -0.90625 C 11.921875 -0.65625 11.835938 -0.445312 11.671875 -0.28125 C 11.484375 -0.09375 11.265625 0 11.015625 0 L 2.453125 0 C 2.203125 0 1.992188 -0.09375 1.828125 -0.28125 C 1.640625 -0.445312 1.546875 -0.65625 1.546875 -0.90625 L 1.546875 -21.859375 C 1.546875 -22.109375 1.640625 -22.328125 1.828125 -22.515625 C 1.992188 -22.671875 2.203125 -22.75 2.453125 -22.75 L 4.15625 -22.75 C 4.40625 -22.75 4.625 -22.671875 4.8125 -22.515625 C 4.976562 -22.328125 5.0625 -22.109375 5.0625 -21.859375 L 5.0625 -4.40625 C 5.0625 -4.15625 5.15625 -3.945312 5.34375 -3.78125 C 5.507812 -3.601562 5.71875 -3.515625 5.96875 -3.515625 Z M 11.015625 -3.515625 "/></g></g></g><g fill="#000000" fill-opacity="1"><g transform="translate(66.97629, 30.553829)"><g><path d="M 12.734375 -20.15625 C 12.734375 -19.90625 12.648438 -19.695312 12.484375 -19.53125 C 12.296875 -19.34375 12.078125 -19.25 11.828125 -19.25 L 5.96875 -19.25 C 5.71875 -19.25 5.507812 -19.164062 5.34375 -19 C 5.15625 -18.8125 5.0625 -18.59375 5.0625 -18.34375 L 5.0625 -16.484375 C 5.0625 -16.234375 5.15625 -16.023438 5.34375 -15.859375 C 5.507812 -15.671875 5.71875 -15.578125 5.96875 -15.578125 L 9.84375 -15.578125 C 10.113281 -15.578125 10.34375 -15.5 10.53125 -15.34375 C 10.6875 -15.15625 10.765625 -14.9375 10.765625 -14.6875 L 10.765625 -13.015625 C 10.765625 -12.765625 10.6875 -12.546875 10.53125 -12.359375 C 10.34375 -12.171875 10.113281 -12.078125 9.84375 -12.078125 L 5.96875 -12.078125 C 5.71875 -12.078125 5.507812 -11.992188 5.34375 -11.828125 C 5.15625 -11.640625 5.0625 -11.421875 5.0625 -11.171875 L 5.0625 -0.90625 C 5.0625 -0.65625 4.976562 -0.445312 4.8125 -0.28125 C 4.625 -0.09375 4.40625 0 4.15625 0 L 2.453125 0 C 2.203125 0 1.992188 -0.09375 1.828125 -0.28125 C 1.640625 -0.445312 1.546875 -0.65625 1.546875 -0.90625 L 1.546875 -21.859375 C 1.546875 -22.109375 1.640625 -22.328125 1.828125 -22.515625 C 1.992188 -22.671875 2.203125 -22.75 2.453125 -22.75 L 11.828125 -22.75 C 12.078125 -22.75 12.296875 -22.671875 12.484375 -22.515625 C 12.648438 -22.328125 12.734375 -22.109375 12.734375 -21.859375 Z M 12.734375 -20.15625 "/></g></g></g><g fill="#000000" fill-opacity="1"><g transform="translate(81.252071, 30.553829)"><g><path d="M 14.1875 0 C 13.75 0 13.457031 -0.226562 13.3125 -0.6875 C 13.25 -0.914062 13.171875 -1.242188 13.078125 -1.671875 C 12.953125 -2.085938 12.796875 -2.660156 12.609375 -3.390625 C 12.460938 -3.835938 12.160156 -4.0625 11.703125 -4.0625 L 6.734375 -4.0625 C 6.273438 -4.0625 5.976562 -3.835938 5.84375 -3.390625 C 5.695312 -2.828125 5.570312 -2.316406 5.46875 -1.859375 C 5.34375 -1.410156 5.226562 -1.019531 5.125 -0.6875 C 4.976562 -0.226562 4.6875 0 4.25 0 L 2.484375 0 C 2.191406 0 1.953125 -0.125 1.765625 -0.375 C 1.578125 -0.601562 1.523438 -0.863281 1.609375 -1.15625 C 1.816406 -1.914062 2.078125 -2.882812 2.390625 -4.0625 C 2.703125 -5.226562 3.046875 -6.492188 3.421875 -7.859375 C 3.785156 -9.203125 4.164062 -10.597656 4.5625 -12.046875 C 4.9375 -13.472656 5.300781 -14.835938 5.65625 -16.140625 C 5.976562 -17.421875 6.285156 -18.59375 6.578125 -19.65625 C 6.847656 -20.6875 7.066406 -21.492188 7.234375 -22.078125 C 7.273438 -22.285156 7.378906 -22.453125 7.546875 -22.578125 C 7.710938 -22.691406 7.898438 -22.75 8.109375 -22.75 L 10.34375 -22.75 C 10.550781 -22.75 10.734375 -22.691406 10.890625 -22.578125 C 11.054688 -22.453125 11.160156 -22.285156 11.203125 -22.078125 C 11.929688 -19.335938 12.566406 -17 13.109375 -15.0625 C 13.617188 -13.113281 14.050781 -11.476562 14.40625 -10.15625 C 14.757812 -8.832031 15.050781 -7.765625 15.28125 -6.953125 C 15.476562 -6.148438 15.648438 -5.507812 15.796875 -5.03125 C 15.921875 -4.53125 16.023438 -4.15625 16.109375 -3.90625 C 16.171875 -3.644531 16.234375 -3.398438 16.296875 -3.171875 C 16.359375 -2.941406 16.429688 -2.679688 16.515625 -2.390625 C 16.578125 -2.097656 16.679688 -1.6875 16.828125 -1.15625 C 16.910156 -0.863281 16.859375 -0.601562 16.671875 -0.375 C 16.484375 -0.125 16.242188 0 15.953125 0 Z M 7.265625 -8.71875 C 7.179688 -8.4375 7.234375 -8.179688 7.421875 -7.953125 C 7.609375 -7.703125 7.847656 -7.578125 8.140625 -7.578125 L 10.3125 -7.578125 C 10.601562 -7.578125 10.835938 -7.703125 11.015625 -7.953125 C 11.203125 -8.179688 11.253906 -8.4375 11.171875 -8.71875 C 11.003906 -9.300781 10.84375 -9.925781 10.6875 -10.59375 C 10.5 -11.25 10.300781 -11.953125 10.09375 -12.703125 C 10.03125 -12.929688 9.914062 -13.101562 9.75 -13.21875 C 9.582031 -13.320312 9.40625 -13.375 9.21875 -13.375 C 9.03125 -13.375 8.851562 -13.320312 8.6875 -13.21875 C 8.519531 -13.101562 8.410156 -12.929688 8.359375 -12.703125 C 8.171875 -12.035156 7.992188 -11.375 7.828125 -10.71875 C 7.640625 -10.050781 7.453125 -9.382812 7.265625 -8.71875 Z M 7.265625 -8.71875 "/></g></g></g><g fill="#000000" fill-opacity="1"><g transform="translate(99.686433, 30.553829)"><g><path d="M 13.46875 -11.765625 C 14.15625 -11.203125 14.695312 -10.519531 15.09375 -9.71875 C 15.457031 -8.90625 15.679688 -8.066406 15.765625 -7.203125 C 15.847656 -6.335938 15.773438 -5.476562 15.546875 -4.625 C 15.328125 -3.757812 14.945312 -2.984375 14.40625 -2.296875 C 13.863281 -1.609375 13.171875 -1.0625 12.328125 -0.65625 C 11.472656 -0.21875 10.476562 0 9.34375 0 L 2.453125 0 C 2.203125 0 1.992188 -0.09375 1.828125 -0.28125 C 1.640625 -0.445312 1.546875 -0.65625 1.546875 -0.90625 L 1.546875 -21.859375 C 1.546875 -22.109375 1.640625 -22.328125 1.828125 -22.515625 C 1.992188 -22.671875 2.203125 -22.75 2.453125 -22.75 L 7.578125 -22.75 C 9.023438 -22.75 10.234375 -22.421875 11.203125 -21.765625 C 12.160156 -21.097656 12.875 -20.269531 13.34375 -19.28125 C 13.820312 -18.289062 14.0625 -17.210938 14.0625 -16.046875 C 14.039062 -14.890625 13.769531 -13.828125 13.25 -12.859375 C 13.15625 -12.671875 13.125 -12.472656 13.15625 -12.265625 C 13.195312 -12.054688 13.300781 -11.890625 13.46875 -11.765625 Z M 5.96875 -19.25 C 5.71875 -19.25 5.507812 -19.164062 5.34375 -19 C 5.15625 -18.8125 5.0625 -18.59375 5.0625 -18.34375 L 5.0625 -14.03125 C 5.0625 -13.78125 5.15625 -13.570312 5.34375 -13.40625 C 5.507812 -13.226562 5.71875 -13.140625 5.96875 -13.140625 L 7.640625 -13.140625 C 8.273438 -13.140625 8.8125 -13.289062 9.25 -13.59375 C 9.6875 -13.882812 10.019531 -14.257812 10.25 -14.71875 C 10.476562 -15.175781 10.59375 -15.671875 10.59375 -16.203125 C 10.59375 -16.722656 10.488281 -17.210938 10.28125 -17.671875 C 10.050781 -18.117188 9.71875 -18.5 9.28125 -18.8125 C 8.84375 -19.101562 8.296875 -19.25 7.640625 -19.25 Z M 9.40625 -3.515625 C 10.050781 -3.515625 10.585938 -3.664062 11.015625 -3.96875 C 11.453125 -4.257812 11.785156 -4.632812 12.015625 -5.09375 C 12.222656 -5.550781 12.335938 -6.046875 12.359375 -6.578125 C 12.359375 -7.097656 12.253906 -7.585938 12.046875 -8.046875 C 11.816406 -8.492188 11.484375 -8.875 11.046875 -9.1875 C 10.617188 -9.476562 10.070312 -9.625 9.40625 -9.625 L 5.96875 -9.625 C 5.71875 -9.625 5.507812 -9.539062 5.34375 -9.375 C 5.15625 -9.1875 5.0625 -8.96875 5.0625 -8.71875 L 5.0625 -4.40625 C 5.0625 -4.15625 5.15625 -3.945312 5.34375 -3.78125 C 5.507812 -3.601562 5.71875 -3.515625 5.96875 -3.515625 Z M 9.40625 -3.515625 "/></g></g></g><g fill="#000000" fill-opacity="1"><g transform="translate(117.034602, 30.553829)"><g><path d="M 11.015625 -3.515625 C 11.265625 -3.515625 11.484375 -3.429688 11.671875 -3.265625 C 11.835938 -3.078125 11.921875 -2.859375 11.921875 -2.609375 L 11.921875 -0.90625 C 11.921875 -0.65625 11.835938 -0.445312 11.671875 -0.28125 C 11.484375 -0.09375 11.265625 0 11.015625 0 L 2.453125 0 C 2.203125 0 1.992188 -0.09375 1.828125 -0.28125 C 1.640625 -0.445312 1.546875 -0.65625 1.546875 -0.90625 L 1.546875 -21.859375 C 1.546875 -22.109375 1.640625 -22.328125 1.828125 -22.515625 C 1.992188 -22.671875 2.203125 -22.75 2.453125 -22.75 L 4.15625 -22.75 C 4.40625 -22.75 4.625 -22.671875 4.8125 -22.515625 C 4.976562 -22.328125 5.0625 -22.109375 5.0625 -21.859375 L 5.0625 -4.40625 C 5.0625 -4.15625 5.15625 -3.945312 5.34375 -3.78125 C 5.507812 -3.601562 5.71875 -3.515625 5.96875 -3.515625 Z M 11.015625 -3.515625 "/></g></g></g><g fill="#000000" fill-opacity="1"><g transform="translate(130.503477, 30.553829)"><g><path d="M 12.734375 -20.15625 C 12.734375 -19.90625 12.648438 -19.695312 12.484375 -19.53125 C 12.296875 -19.34375 12.078125 -19.25 11.828125 -19.25 L 5.96875 -19.25 C 5.71875 -19.25 5.507812 -19.164062 5.34375 -19 C 5.15625 -18.8125 5.0625 -18.59375 5.0625 -18.34375 L 5.0625 -16.484375 C 5.0625 -16.234375 5.15625 -16.023438 5.34375 -15.859375 C 5.507812 -15.671875 5.71875 -15.578125 5.96875 -15.578125 L 9.84375 -15.578125 C 10.113281 -15.578125 10.34375 -15.5 10.53125 -15.34375 C 10.6875 -15.15625 10.765625 -14.9375 10.765625 -14.6875 L 10.765625 -13.015625 C 10.765625 -12.765625 10.6875 -12.546875 10.53125 -12.359375 C 10.34375 -12.171875 10.113281 -12.078125 9.84375 -12.078125 L 5.96875 -12.078125 C 5.71875 -12.078125 5.507812 -11.992188 5.34375 -11.828125 C 5.15625 -11.640625 5.0625 -11.421875 5.0625 -11.171875 L 5.0625 -4.40625 C 5.0625 -4.15625 5.15625 -3.945312 5.34375 -3.78125 C 5.507812 -3.601562 5.71875 -3.515625 5.96875 -3.515625 L 11.828125 -3.515625 C 12.078125 -3.515625 12.296875 -3.429688 12.484375 -3.265625 C 12.648438 -3.078125 12.734375 -2.859375 12.734375 -2.609375 L 12.734375 -0.90625 C 12.734375 -0.65625 12.648438 -0.445312 12.484375 -0.28125 C 12.296875 -0.09375 12.078125 0 11.828125 0 L 2.453125 0 C 2.203125 0 1.992188 -0.09375 1.828125 -0.28125 C 1.640625 -0.445312 1.546875 -0.65625 1.546875 -0.90625 L 1.546875 -21.859375 C 1.546875 -22.109375 1.640625 -22.328125 1.828125 -22.515625 C 1.992188 -22.671875 2.203125 -22.75 2.453125 -22.75 L 11.828125 -22.75 C 12.078125 -22.75 12.296875 -22.671875 12.484375 -22.515625 C 12.648438 -22.328125 12.734375 -22.109375 12.734375 -21.859375 Z M 12.734375 -20.15625 "/></g></g></g><g mask="url(#67e8bae569)"><g transform="matrix(1, 0, 0, 1, 2, 8)"><g clip-path="url(#9870e2089d)"><g clip-path="url(#9cad95ebfe)"><path fill="#000000" d="M 4.121094 22.742188 L 4.121094 1.742188 L 22.300781 1.742188 L 22.300781 22.742188 Z M 3.691406 27.160156 C 2.726562 27.160156 1.945312 26.367188 1.945312 25.390625 C 1.945312 24.414062 2.726562 23.617188 3.691406 23.617188 L 20.792969 23.617188 C 20.375 24.085938 20.121094 24.707031 20.121094 25.390625 C 20.121094 26.070312 20.375 26.691406 20.792969 27.160156 Z M 1.945312 3.511719 C 1.945312 2.6875 2.503906 2 3.257812 1.800781 L 3.257812 22.785156 C 2.757812 22.871094 2.304688 23.101562 1.945312 23.433594 Z M 22.734375 23.617188 C 22.972656 23.617188 23.164062 23.421875 23.164062 23.179688 L 23.164062 1.300781 C 23.164062 1.058594 22.972656 0.863281 22.734375 0.863281 L 3.691406 0.863281 C 2.25 0.863281 1.078125 2.050781 1.078125 3.511719 L 1.078125 25.03125 C 1.078125 25.03125 1.035156 25.546875 1.25 26.300781 C 1.503906 27.1875 2.566406 28.035156 3.691406 28.035156 L 22.734375 28.035156 C 22.972656 28.035156 23.164062 27.839844 23.164062 27.597656 C 23.164062 27.355469 22.972656 27.160156 22.734375 27.160156 C 21.769531 27.160156 20.984375 26.367188 20.984375 25.390625 C 20.984375 24.414062 21.769531 23.617188 22.734375 23.617188 " fill-opacity="1" fill-rule="nonzero"/></g></g></g></g><g clip-path="url(#906caa48f2)"><path fill="#ff5757" d="M -9.960938 30.996094 L 163.726562 30.996094 L 163.726562 35.996094 L -9.960938 35.996094 Z M -9.960938 30.996094 " fill-opacity="1" fill-rule="nonzero"/></g><g clip-path="url(#19a41ca91b)"><path fill="#abbbbb" d="M 6.335938 35.996094 L -1.617188 35.996094 L -1.617188 37.375 C -1.617188 39.777344 -1.378906 42.136719 -0.910156 44.5 L 2.832031 62.804688 C 2.949219 63.476562 3.539062 63.90625 4.210938 63.90625 L 6.296875 63.90625 C 6.964844 63.90625 7.515625 63.433594 7.671875 62.804688 L 11.414062 44.5 C 11.886719 42.175781 12.121094 39.777344 12.121094 37.375 L 12.121094 35.957031 L 6.335938 35.957031 Z M 149.554688 35.996094 L 141.601562 35.996094 L 141.601562 37.375 C 141.601562 39.777344 141.835938 42.136719 142.308594 44.5 L 146.050781 62.804688 C 146.167969 63.476562 146.757812 63.90625 147.425781 63.90625 L 149.515625 63.90625 C 150.183594 63.90625 150.734375 63.433594 150.890625 62.804688 L 154.632812 44.5 C 155.105469 42.175781 155.339844 39.777344 155.339844 37.375 L 155.339844 35.957031 L 149.554688 35.957031 Z M 149.554688 35.996094 " fill-opacity="1" fill-rule="nonzero"/></g><g clip-path="url(#63dd1cf939)"><path stroke-linecap="butt" transform="matrix(0.393672, 0, 0, 0.393672, -10.041605, 30.681709)" fill="none" stroke-linejoin="round" d="M 0.800266 0.798595 L 441.998347 0.798595 L 441.998347 13.499511 L 0.800266 13.499511 Z M 0.800266 0.798595 " stroke="#333333" stroke-width="1.5" stroke-opacity="1" stroke-miterlimit="10"/></g></svg>